<svg xmlns="http://www.w3.org/2000/svg" viewBox="0 0 64 64">
  <rect width="64" height="64" rx="12" fill="#3b82f6"/>
  <svg x="3" y="14" width="58" height="36" viewBox="0 0 387 233" preserveAspectRatio="xMidYMid meet">
    <g transform="translate(0,233) scale(0.1,-0.1)" fill="#ffffff" stroke="none">
      <path d="M3345 2240 c-99 -20 -330 -130 -522 -250 -17 -11 -26 -6 -75 43 -208
208 -602 188 -698 -35 -17 -40 -21 -64 -17 -104 10 -93 51 -148 147 -193 51
-23 65 -25 180 -24 69 1 138 3 154 5 27 3 30 -1 47 -51 24 -69 39 -263 32
-404 l-6 -108 -101 -51 c-152 -76 -254 -148 -344 -243 -135 -142 -201 -306
-174 -433 53 -253 393 -313 637 -113 68 56 159 163 200 238 57 101 145 399
145 491 0 29 28 35 165 35 86 0 138 -5 184 -18 61 -18 64 -18 77 0 20 27 38
126 27 145 -21 32 -103 52 -228 53 -66 1 -138 -1 -160 -5 l-40 -7 -1 177 c-1
178 -16 297 -49 391 -8 23 -13 41 -11 41 2 0 48 11 103 25 251 62 425 53 532
-29 44 -33 53 -33 97 6 l37 32 -6 86 c-8 121 -37 200 -94 250 -65 57 -132 71
-238 50z m-990 -289 c38 -17 115 -91 115 -110 0 -25 -155 -29 -205 -5 -57 27
-65 103 -13 124 35 13 59 11 103 -9z m191 -1048 c-3 -10 -14 -64 -26 -121 -54
-263 -154 -403 -278 -389 -163 18 -102 255 106 409 57 42 182 118 195 118 5 0
6 -8 3 -17z"/>
      <path d="M1640 2193 c-55 -10 -211 -96 -314 -175 -60 -46 -128 -97 -151 -114
l-42 -32 -32 78 c-38 93 -91 152 -171 188 -115 53 -305 26 -463 -65 -76 -45
-217 -153 -251 -194 -22 -26 -24 -34 -15 -52 17 -33 40 -57 55 -57 7 0 46 24
87 53 130 93 255 130 312 93 59 -39 104 -162 105 -292 0 -48 -46 -120 -180
-281 -132 -157 -145 -175 -215 -280 -119 -179 -149 -236 -197 -376 -27 -79
-32 -107 -32 -197 -1 -95 2 -110 27 -161 60 -123 159 -176 311 -166 119 7 179
37 286 145 48 48 105 112 128 143 73 97 142 270 202 504 54 211 71 339 74 556
l3 186 55 50 c130 118 242 170 307 143 20 -8 38 -27 52 -57 19 -39 21 -56 16
-122 -10 -113 -61 -364 -112 -551 -150 -538 -155 -561 -162 -680 -4 -90 -3
-98 24 -150 33 -65 73 -95 150 -110 63 -13 140 -3 224 30 56 22 149 78 149 90
0 4 -13 22 -29 39 -23 25 -37 31 -69 31 -104 0 -97 93 45 610 69 253 121 475
160 690 20 114 14 277 -15 340 -26 58 -85 115 -141 135 -41 14 -124 18 -181 8z
m-884 -905 c-3 -18 -10 -78 -16 -133 -14 -130 -33 -212 -82 -365 -91 -280
-191 -416 -289 -395 -99 22 -91 185 17 396 79 154 339 528 367 529 4 0 6 -15
3 -32z"/>
    </g>
  </svg>
</svg>
