<?xml version="1.0" standalone="no"?>
<!DOCTYPE svg PUBLIC "-//W3C//DTD SVG 20010904//EN"
 "http://www.w3.org/TR/2001/REC-SVG-20010904/DTD/svg10.dtd">
<svg version="1.0" xmlns="http://www.w3.org/2000/svg"
 width="600.000000pt" height="131.000000pt" viewBox="0 0 600.000000 131.000000"
 preserveAspectRatio="xMidYMid meet">
<g transform="translate(0.000000,131.000000) scale(0.100000,-0.100000)"
fill="#000000" stroke="none">
<path d="M3790 1257 c-31 -13 -96 -46 -146 -75 -50 -29 -95 -52 -99 -52 -4 0
-27 18 -52 39 -61 54 -126 75 -218 69 -131 -9 -205 -76 -189 -171 14 -85 116
-138 234 -122 l49 7 10 -39 c6 -21 11 -88 11 -149 l0 -111 -66 -33 c-72 -35
-196 -145 -245 -217 -36 -51 -63 -152 -54 -196 26 -122 178 -174 314 -106 137
68 228 227 257 445 l6 52 52 6 c28 4 78 2 111 -4 90 -15 91 -14 102 29 6 21 8
44 4 49 -12 20 -101 35 -183 30 l-80 -5 5 47 c6 47 -5 202 -18 251 -6 25 -4
26 70 42 41 9 110 17 153 17 63 0 86 -5 129 -26 49 -25 54 -26 77 -11 21 14
24 22 19 59 -7 64 -52 149 -92 176 -43 28 -91 28 -161 -1z m-486 -177 c34 -33
27 -50 -19 -50 -72 0 -111 35 -79 71 22 24 59 16 98 -21z m42 -646 c-32 -154
-90 -233 -161 -219 -40 7 -49 19 -48 58 1 45 22 84 81 148 43 47 129 105 140
94 2 -2 -3 -38 -12 -81z"/>
<path d="M4195 1273 c-11 -2 -43 -11 -71 -18 l-51 -15 -6 -122 c-6 -135 -22
-236 -67 -433 -47 -207 -81 -391 -81 -450 -2 -94 52 -139 143 -120 36 8 128
54 168 85 22 17 23 21 10 34 -13 14 -20 14 -60 0 -41 -14 -45 -14 -57 2 -8 11
-11 32 -7 54 17 102 60 314 94 455 58 242 80 368 80 456 l0 79 -37 -1 c-21 -1
-47 -3 -58 -6z"/>
<path d="M996 1224 c-51 -19 -96 -46 -187 -116 -42 -32 -79 -58 -82 -58 -4 0
-7 7 -7 15 0 30 -40 94 -76 122 -50 38 -144 44 -228 14 -69 -24 -189 -97 -229
-139 -25 -26 -27 -32 -15 -51 17 -27 22 -27 79 9 26 17 72 40 103 50 92 33
127 4 141 -118 l7 -63 -84 -87 c-113 -118 -169 -193 -222 -299 -75 -147 -93
-251 -57 -328 34 -73 86 -105 170 -105 103 0 240 112 306 252 61 128 124 418
125 568 0 54 1 56 50 95 68 54 109 75 147 75 67 0 79 -72 42 -247 -107 -515
-115 -572 -83 -638 34 -71 142 -84 250 -29 75 38 72 78 -6 86 l-35 3 1 80 c1
62 15 136 62 325 74 300 87 382 73 452 -16 70 -39 105 -86 128 -48 23 -104 25
-159 4z m-526 -623 c-30 -205 -87 -353 -147 -380 -36 -16 -82 -3 -89 26 -16
62 24 179 111 326 38 66 133 182 141 174 3 -2 -5 -68 -16 -146z"/>
<path d="M2240 1050 c-25 -5 -62 -14 -82 -20 l-38 -11 -1 -82 c-2 -125 -5
-131 -67 -135 l-52 -3 0 -45 0 -44 46 0 46 0 -7 -37 c-7 -43 -28 -63 -64 -63
-14 0 -42 -3 -61 -6 l-36 -6 -11 76 c-11 80 -28 116 -67 141 -20 14 -41 14
-147 6 -104 -9 -133 -15 -178 -38 -104 -53 -171 -165 -193 -324 -23 -163 23
-278 129 -326 180 -83 399 78 446 327 l11 59 56 10 c30 5 63 13 73 16 15 6 17
4 12 -16 -17 -74 -45 -249 -45 -286 0 -147 145 -175 320 -62 57 37 61 42 47
56 -14 14 -19 14 -56 -1 -70 -28 -81 -23 -81 32 0 46 37 290 60 400 l12 52 72
0 72 0 13 35 c7 19 9 39 6 45 -3 5 -38 10 -76 10 l-71 0 9 43 c4 23 8 78 8
122 l0 80 -30 2 c-16 1 -50 -3 -75 -7z m-556 -322 c-13 -43 -22 -90 -19 -102
2 -6 6 -23 9 -38 10 -43 42 -66 103 -74 l55 -7 -6 -44 c-8 -63 -60 -165 -101
-202 -45 -39 -81 -48 -114 -30 -45 25 -56 63 -56 184 0 117 12 178 51 257 32
63 95 108 78 56z"/>
<path d="M4629 820 c-102 -8 -160 -33 -219 -93 -79 -80 -120 -204 -120 -359 0
-99 19 -147 77 -199 52 -47 101 -63 170 -56 74 8 129 37 200 105 63 61 86 106
119 237 14 56 20 65 39 65 12 0 37 3 54 6 l31 7 0 -169 c0 -150 2 -172 19
-198 51 -77 137 -74 252 9 l48 34 20 -33 c64 -103 221 -81 355 50 119 116 222
435 173 531 -16 31 -69 63 -104 63 -40 0 -106 -100 -119 -179 -6 -39 -4 -43
50 -102 65 -69 66 -83 19 -171 -35 -64 -76 -104 -130 -124 -44 -17 -46 -17
-60 2 -16 21 -13 74 14 234 9 52 17 147 17 210 l1 115 -30 3 c-16 1 -66 -8
-109 -20 l-80 -23 3 -105 c1 -58 -3 -166 -8 -240 -11 -134 -11 -135 -43 -162
-43 -37 -93 -39 -102 -3 -6 25 7 193 24 315 22 151 4 226 -58 244 -32 9 -170
-5 -193 -20 -5 -3 2 -22 16 -42 18 -26 25 -50 25 -84 0 -26 -3 -49 -7 -51 -5
-3 -29 -8 -55 -12 l-48 -7 0 44 c0 79 -31 153 -72 174 -29 15 -34 15 -169 4z
m7 -92 c-25 -84 -18 -142 20 -188 22 -26 32 -30 75 -30 32 0 49 -4 50 -12 7
-72 -67 -225 -122 -253 -32 -17 -82 -19 -109 -5 -83 44 -43 417 53 492 30 24
41 22 33 -4z"/>
<path d="M2739 807 c-86 -24 -175 -90 -224 -165 -35 -55 -57 -145 -59 -241 -2
-120 7 -151 60 -210 60 -67 111 -86 207 -78 61 5 88 14 175 58 56 29 102 58
102 64 0 7 -7 18 -15 25 -12 10 -23 8 -58 -16 -32 -21 -57 -29 -104 -32 -75
-5 -107 11 -129 65 -26 61 -17 75 55 89 137 28 268 118 290 199 41 150 -25
242 -181 251 -43 2 -92 -1 -119 -9z m102 -88 c27 -52 6 -169 -42 -223 -28 -32
-114 -73 -122 -58 -7 13 10 136 26 193 9 31 28 68 41 82 31 34 80 37 97 6z"/>
</g>
</svg>
